<?xml version="1.0" encoding="UTF-8"?>
<svg version="1.1" xmlns="http://www.w3.org/2000/svg" width="200" height="75">
<path d="M0 0 C0.66 0.33 1.32 0.66 2 1 C0.68 9.25 -0.64 17.5 -2 26 C0.97 24.68 3.94 23.36 7 22 C7 39.49 7 56.98 7 75 C4.49747365 71.24621047 4.2417188 67.76590784 3.7109375 63.39453125 C3.60278717 62.55532639 3.49463684 61.71612152 3.38320923 60.85148621 C3.03971903 58.17270837 2.70723374 55.49269486 2.375 52.8125 C2.14395295 50.99535053 1.91219074 49.17829185 1.6796875 47.36132812 C1.11148993 42.90856269 0.55315767 38.45465777 0 34 C-3.40343555 34 -6.04215257 36.2882375 -8.90625 38.00390625 C-9.94265625 38.49697266 -9.94265625 38.49697266 -11 39 C-11.66 38.67 -12.32 38.34 -13 38 C-8.71 25.46 -4.42 12.92 0 0 Z " fill="#00BECE" transform="translate(13,0)"/>
<path d="M0 0 C0.66 0 1.32 0 2 0 C3.57854897 4.44329476 5.14468249 8.89070284 6.69970703 13.34228516 C7.22988313 14.85453241 7.76337179 16.3656227 8.30029297 17.87548828 C9.07362786 20.05201709 9.83476418 22.23249482 10.59375 24.4140625 C10.83436157 25.08305573 11.07497314 25.75204895 11.32287598 26.4413147 C12.69373246 30.42643988 13.2505505 33.79189054 13 38 C12.29875 37.71125 11.5975 37.4225 10.875 37.125 C7.94533771 35.97861041 4.98728273 34.98472755 2 34 C1.85900879 35.13542236 1.71801758 36.27084473 1.57275391 37.44067383 C1.04772405 41.65166846 0.5122622 45.86128174 -0.02636719 50.07055664 C-0.25806032 51.89278743 -0.48692002 53.71538081 -0.71289062 55.53833008 C-1.0381291 58.15806894 -1.37352446 60.77633616 -1.7109375 63.39453125 C-1.85950699 64.61811089 -1.85950699 64.61811089 -2.01107788 65.8664093 C-2.49713778 69.56494559 -2.89929895 71.84894842 -5 75 C-5 57.51 -5 40.02 -5 22 C-0.545 23.98 -0.545 23.98 4 26 C2.68 17.42 1.36 8.84 0 0 Z " fill="#00BECE" transform="translate(187,0)"/>
<path d="M0 0 C6.93 0 13.86 0 21 0 C21 8.91 21 17.82 21 27 C19.02 27 17.04 27 15 27 C15 19.08 15 11.16 15 3 C14.34 3 13.68 3 13 3 C13 6.3 13 9.6 13 13 C11.35 13.66 9.7 14.32 8 15 C8 11.04 8 7.08 8 3 C7.01 3 6.02 3 5 3 C5.33 3.99 5.66 4.98 6 6 C6.08143855 7.62719482 6.1075302 9.25751719 6.09765625 10.88671875 C6.09282227 12.2934082 6.09282227 12.2934082 6.08789062 13.72851562 C6.07951172 14.70498047 6.07113281 15.68144531 6.0625 16.6875 C6.05798828 17.67556641 6.05347656 18.66363281 6.04882812 19.68164062 C6.03704303 22.12115474 6.02059011 24.56054689 6 27 C4.02 27 2.04 27 0 27 C0 18.09 0 9.18 0 0 Z " fill="#FFFFFF" transform="translate(109,7)"/>
<path d="M0 0 C4.29 0 8.58 0 13 0 C13 8.91 13 17.82 13 27 C8.71 27 4.42 27 0 27 C0 18.09 0 9.18 0 0 Z M5 3 C5 5.64 5 8.28 5 11 C5.99 10.34 6.98 9.68 8 9 C7.67 7.02 7.34 5.04 7 3 C6.34 3 5.68 3 5 3 Z M6 13 C4.74050951 14.03406673 4.74050951 14.03406673 4.90234375 16.28515625 C4.91394531 17.20167969 4.92554688 18.11820313 4.9375 19.0625 C4.94652344 19.98160156 4.95554688 20.90070312 4.96484375 21.84765625 C4.97644531 22.55792969 4.98804688 23.26820312 5 24 C5.66 24 6.32 24 7 24 C7.20625 22.741875 7.4125 21.48375 7.625 20.1875 C7.74101562 19.47980469 7.85703125 18.77210937 7.9765625 18.04296875 C8.19577848 15.68244176 8.19577848 15.68244176 6 13 Z " fill="#FFFFFF" transform="translate(132,7)"/>
<path d="M0 0 C4.29 0 8.58 0 13 0 C13 8.91 13 17.82 13 27 C11.35 27 9.7 27 8 27 C7.67 22.71 7.34 18.42 7 14 C6.67 18.29 6.34 22.58 6 27 C4.02 27 2.04 27 0 27 C0 18.09 0 9.18 0 0 Z M5 3 C5.33 5.31 5.66 7.62 6 10 C6.66 10 7.32 10 8 10 C8 7.69 8 5.38 8 3 C7.01 3 6.02 3 5 3 Z " fill="#FFFFFF" transform="translate(94,7)"/>
<path d="M0 0 C3.96 0 7.92 0 12 0 C12.88902912 6.04819812 13.12348383 11.89223486 13.0625 18 C13.05798828 18.87011719 13.05347656 19.74023438 13.04882812 20.63671875 C13.0371736 22.75784293 13.01924357 24.8789311 13 27 C8.71 27 4.42 27 0 27 C0 18.09 0 9.18 0 0 Z M5 3 C5 5.64 5 8.28 5 11 C5.99 10.34 6.98 9.68 8 9 C7.67 7.02 7.34 5.04 7 3 C6.34 3 5.68 3 5 3 Z M6 13 C5.34 13.66 4.68 14.32 4 15 C3.97746557 17.44963177 3.97746557 17.44963177 4.375 20.125 C4.48585938 21.03507812 4.59671875 21.94515625 4.7109375 22.8828125 C4.80632813 23.58148438 4.90171875 24.28015625 5 25 C5.66 25 6.32 25 7 25 C7 21.04 7 17.08 7 13 C6.67 13 6.34 13 6 13 Z " fill="#FFFFFF" transform="translate(57,7)"/>
<path d="M0 0 C3.96 0 7.92 0 12 0 C12.88902912 6.04819812 13.12348383 11.89223486 13.0625 18 C13.05798828 18.87011719 13.05347656 19.74023438 13.04882812 20.63671875 C13.0371736 22.75784293 13.01924357 24.8789311 13 27 C8.71 27 4.42 27 0 27 C0 18.09 0 9.18 0 0 Z M5 3 C5 5.64 5 8.28 5 11 C5.99 10.34 6.98 9.68 8 9 C7.67 7.02 7.34 5.04 7 3 C6.34 3 5.68 3 5 3 Z M6 13 C4.71387324 14.05978933 4.71387324 14.05978933 4.90234375 16.50390625 C4.91394531 17.51324219 4.92554688 18.52257812 4.9375 19.5625 C4.94652344 20.57441406 4.95554687 21.58632813 4.96484375 22.62890625 C4.97644531 23.41136719 4.98804688 24.19382812 5 25 C5.66 25 6.32 25 7 25 C7.2226746 23.56465159 7.42761906 22.12654475 7.625 20.6875 C7.74101563 19.88699219 7.85703125 19.08648437 7.9765625 18.26171875 C8.21533407 15.71276785 8.21533407 15.71276785 6 13 Z " fill="#FFFFFF" transform="translate(42,7)"/>
<path d="M0 0 C4.29 0 8.58 0 13 0 C13 8.91 13 17.82 13 27 C11.35 27 9.7 27 8 27 C8 18.75 8 10.5 8 2 C7.01 2 6.02 2 5 2 C5.33 10.25 5.66 18.5 6 27 C4.02 27 2.04 27 0 27 C0 18.09 0 9.18 0 0 Z " fill="#FFFFFF" transform="translate(147,7)"/>
<path d="M0 0 C6.93 0 13.86 0 21 0 C21 2.97 21 5.94 21 9 C19.02 8.34 17.04 7.68 15 7 C15 5.68 15 4.36 15 3 C14.34 3 13.68 3 13 3 C13 10.92 13 18.84 13 27 C11.35 27 9.7 27 8 27 C8 19.08 8 11.16 8 3 C7.34 3 6.68 3 6 3 C5.67 4.65 5.34 6.3 5 8 C3.35 8.33 1.7 8.66 0 9 C0 6.03 0 3.06 0 0 Z " fill="#FFFFFF" transform="translate(162,7)"/>
<path d="M0 0 C6.6 0 13.2 0 20 0 C20 2.97 20 5.94 20 9 C18.35 8.34 16.7 7.68 15 7 C15 5.68 15 4.36 15 3 C14.01 3 13.02 3 12 3 C12.0721875 3.64324219 12.144375 4.28648438 12.21875 4.94921875 C12.97577262 12.31967507 13.10595877 19.59465929 13 27 C11.02 27 9.04 27 7 27 C7 19.08 7 11.16 7 3 C6.34 3 5.68 3 5 3 C4.67 4.65 4.34 6.3 4 8 C2.68 8.33 1.36 8.66 0 9 C0 6.03 0 3.06 0 0 Z " fill="#FFFFFF" transform="translate(72,7)"/>
<path d="M0 0 C6.6 0 13.2 0 20 0 C20.33 2.97 20.66 5.94 21 9 C18.525 8.505 18.525 8.505 16 8 C15.67 6.35 15.34 4.7 15 3 C14.34 3 13.68 3 13 3 C13 10.92 13 18.84 13 27 C11.35 27 9.7 27 8 27 C8 19.08 8 11.16 8 3 C7.01 3 6.02 3 5 3 C5 4.65 5 6.3 5 8 C3.35 8.33 1.7 8.66 0 9 C0 6.03 0 3.06 0 0 Z " fill="#FFFFFF" transform="translate(19,7)"/>
<path d="M0 0 C3.63 0 7.26 0 11 0 C11 8.25 11 16.5 11 25 C9.35 25 7.7 25 6 25 C5.67 21.37 5.34 17.74 5 14 C4.67 17.63 4.34 21.26 4 25 C2.68 25 1.36 25 0 25 C0 16.75 0 8.5 0 0 Z M4 3 C4 5.64 4 8.28 4 11 C4.66 10.67 5.32 10.34 6 10 C6 7.69 6 5.38 6 3 C5.34 3 4.68 3 4 3 Z " fill="#FFFFFF" transform="translate(39,39)"/>
<path d="M0 0 C3.3 0 6.6 0 10 0 C10.33 8.25 10.66 16.5 11 25 C7.37 25 3.74 25 0 25 C0 16.75 0 8.5 0 0 Z M4 3 C4 5.31 4 7.62 4 10 C4.66 10 5.32 10 6 10 C6 7.69 6 5.38 6 3 C5.34 3 4.68 3 4 3 Z M5 13 C3.79438816 13.98267859 3.79438816 13.98267859 3.90234375 15.84765625 C3.91394531 16.57855469 3.92554688 17.30945313 3.9375 18.0625 C3.958125 19.361875 3.97875 20.66125 4 22 C4.66 22 5.32 22 6 22 C6 19.03 6 16.06 6 13 C5.67 13 5.34 13 5 13 Z " fill="#FFFFFF" transform="translate(152,39)"/>
<path d="M0 0 C3.3 0 6.6 0 10 0 C10 8.25 10 16.5 10 25 C6.7 25 3.4 25 0 25 C0 16.75 0 8.5 0 0 Z M4 3 C4 5.31 4 7.62 4 10 C4.66 10 5.32 10 6 10 C6 7.69 6 5.38 6 3 C5.34 3 4.68 3 4 3 Z M4 13 C4 15.97 4 18.94 4 22 C4.66 22 5.32 22 6 22 C6 19.03 6 16.06 6 13 C5.34 13 4.68 13 4 13 Z " fill="#FFFFFF" transform="translate(126,39)"/>
<path d="M0 0 C3.3 0 6.6 0 10 0 C10 8.25 10 16.5 10 25 C6.7 25 3.4 25 0 25 C0 16.75 0 8.5 0 0 Z M4 3 C4 5.97 4 8.94 4 12 C4.66 12 5.32 12 6 12 C6 9.03 6 6.06 6 3 C5.34 3 4.68 3 4 3 Z M4 15 C4 17.31 4 19.62 4 22 C4.66 22 5.32 22 6 22 C6 19.69 6 17.38 6 15 C5.34 15 4.68 15 4 15 Z " fill="#FFFFFF" transform="translate(27,39)"/>
<path d="M0 0 C3.3 0 6.6 0 10 0 C10 8.25 10 16.5 10 25 C8.68 25 7.36 25 6 25 C6 21.04 6 17.08 6 13 C5.34 13 4.68 13 4 13 C4 16.96 4 20.92 4 25 C2.68 25 1.36 25 0 25 C0 16.75 0 8.5 0 0 Z M4 3 C4 5.31 4 7.62 4 10 C4.66 10 5.32 10 6 10 C6 7.69 6 5.38 6 3 C5.34 3 4.68 3 4 3 Z " fill="#FFFFFF" transform="translate(52,39)"/>
<path d="M0 0 C3.3 0 6.6 0 10 0 C10 7.92 10 15.84 10 24 C5.05 24.495 5.05 24.495 0 25 C0 16.75 0 8.5 0 0 Z M4 3 C4 5.31 4 7.62 4 10 C4.66 10 5.32 10 6 10 C6 7.69 6 5.38 6 3 C5.34 3 4.68 3 4 3 Z M4 13 C4 15.97 4 18.94 4 22 C4.66 22 5.32 22 6 22 C7.04214691 17.38492226 7.04214691 17.38492226 6 13 C5.34 13 4.68 13 4 13 Z " fill="#FFFFFF" transform="translate(165,39)"/>
<path d="M0 0 C3.3 0 6.6 0 10 0 C10 8.25 10 16.5 10 25 C6.7 25 3.4 25 0 25 C0 16.75 0 8.5 0 0 Z M4 3 C4 9.27 4 15.54 4 22 C4.66 22 5.32 22 6 22 C6 15.73 6 9.46 6 3 C5.34 3 4.68 3 4 3 Z " fill="#FFFFFF" transform="translate(96,39)"/>
<path d="M0 0 C1.32 0 2.64 0 4 0 C4 7.26 4 14.52 4 22 C4.66 22 5.32 22 6 22 C6 14.74 6 7.48 6 0 C7.32 0 8.64 0 10 0 C10.33 8.25 10.66 16.5 11 25 C7.37 25 3.74 25 0 25 C0 16.75 0 8.5 0 0 Z " fill="#FFFFFF" transform="translate(139,39)"/>
<path d="M0 0 C1.32 0 2.64 0 4 0 C4 3.3 4 6.6 4 10 C4.66 10 5.32 10 6 10 C6 6.7 6 3.4 6 0 C7.32 0 8.64 0 10 0 C10 8.25 10 16.5 10 25 C8.68 25 7.36 25 6 25 C5.67 21.37 5.34 17.74 5 14 C4.67 17.63 4.34 21.26 4 25 C2.68 25 1.36 25 0 25 C0 16.75 0 8.5 0 0 Z " fill="#FFFFFF" transform="translate(113,39)"/>
<path d="M0 0 C1.32 0 2.64 0 4 0 C4 3.3 4 6.6 4 10 C4.66 10 5.32 10 6 10 C6 6.7 6 3.4 6 0 C7.32 0 8.64 0 10 0 C10 8.25 10 16.5 10 25 C8.68 25 7.36 25 6 25 C5.67 21.37 5.34 17.74 5 14 C4.67 17.63 4.34 21.26 4 25 C2.68 25 1.36 25 0 25 C0 16.75 0 8.5 0 0 Z " fill="#FFFFFF" transform="translate(77,39)"/>
<path d="M0 0 C3.3 0 6.6 0 10 0 C10.33 3.63 10.66 7.26 11 11 C10.030625 11.268125 9.06125 11.53625 8.0625 11.8125 C4.77428185 13.65283789 4.77428185 13.65283789 4.37890625 16.6484375 C4.14558779 19.44107996 4.00951418 22.19807297 4 25 C2.68 25 1.36 25 0 25 C0 16.75 0 8.5 0 0 Z M4 3 C4 5.64 4 8.28 4 11 C4.66 10.67 5.32 10.34 6 10 C6 7.69 6 5.38 6 3 C5.34 3 4.68 3 4 3 Z " fill="#FFFFFF" transform="translate(64,39)"/>
<path d="M0 0 C1.32 0 2.64 0 4 0 C4 8.25 4 16.5 4 25 C2.68 25 1.36 25 0 25 C0 16.75 0 8.5 0 0 Z " fill="#FFFFFF" transform="translate(89,39)"/>
</svg>
