<?xml version="1.0" ?><!-- Uploaded to: SVG Repo, www.svgrepo.com, Generator: SVG Repo Mixer Tools -->
<svg fill="#000000" width="800px" height="800px" viewBox="0 0 24 24" id="Layer_1" version="1.1" xml:space="preserve" xmlns="http://www.w3.org/2000/svg" xmlns:xlink="http://www.w3.org/1999/xlink"><path d="M17.33,5.67c-0.08-0.55-0.19-1.23-0.71-1.76c-0.53-0.52-1.21-0.63-1.76-0.71c-0.23-0.03-0.46-0.07-0.6-0.13  c-0.12-0.05-0.3-0.19-0.48-0.32C13.35,2.44,12.77,2,12,2s-1.35,0.44-1.78,0.76c-0.18,0.13-0.36,0.27-0.48,0.32  C9.6,3.13,9.37,3.17,9.14,3.2C8.59,3.28,7.91,3.39,7.39,3.91C6.86,4.44,6.76,5.12,6.67,5.67C6.64,5.9,6.6,6.13,6.55,6.27  C6.5,6.39,6.36,6.57,6.23,6.74C5.91,7.17,5.47,7.76,5.47,8.53s0.44,1.35,0.76,1.78c0.13,0.18,0.27,0.36,0.32,0.48  c0.06,0.14,0.09,0.37,0.13,0.6c0.08,0.55,0.19,1.23,0.71,1.76c0.53,0.52,1.21,0.63,1.76,0.71c0.23,0.03,0.46,0.07,0.6,0.13  c0.12,0.05,0.3,0.19,0.48,0.32c0.43,0.32,1.01,0.76,1.78,0.76c0.77,0,1.35-0.44,1.78-0.76c0.17-0.13,0.36-0.27,0.48-0.32  c0.14-0.06,0.37-0.09,0.6-0.13c0.55-0.08,1.23-0.19,1.76-0.71c0.53-0.52,0.63-1.21,0.71-1.76c0.03-0.23,0.07-0.46,0.13-0.6  c0.05-0.12,0.19-0.3,0.32-0.48c0.32-0.43,0.76-1.01,0.76-1.78s-0.44-1.35-0.76-1.78c-0.13-0.18-0.27-0.36-0.32-0.48  C17.4,6.13,17.36,5.9,17.33,5.67z M16.17,9.11c-0.2,0.26-0.42,0.56-0.56,0.91c-0.15,0.36-0.21,0.74-0.26,1.07  c-0.03,0.21-0.08,0.56-0.15,0.64c-0.08,0.07-0.43,0.12-0.64,0.15c-0.33,0.05-0.7,0.11-1.07,0.26c-0.35,0.15-0.65,0.37-0.91,0.56  c-0.17,0.13-0.48,0.36-0.58,0.36s-0.42-0.23-0.58-0.36c-0.26-0.2-0.56-0.42-0.91-0.56c-0.36-0.15-0.74-0.21-1.07-0.26  c-0.21-0.03-0.56-0.08-0.64-0.14c-0.07-0.08-0.12-0.44-0.15-0.65c-0.05-0.33-0.11-0.7-0.26-1.07C8.25,9.67,8.03,9.37,7.83,9.11  C7.71,8.94,7.47,8.63,7.47,8.53s0.23-0.42,0.36-0.58c0.2-0.26,0.42-0.56,0.56-0.91C8.54,6.67,8.6,6.3,8.65,5.97  C8.68,5.76,8.74,5.41,8.8,5.33c0.08-0.07,0.43-0.12,0.64-0.15c0.33-0.05,0.7-0.11,1.06-0.26c0.35-0.15,0.65-0.37,0.91-0.56  C11.58,4.23,11.9,4,12,4s0.42,0.23,0.58,0.36c0.26,0.2,0.56,0.42,0.91,0.56c0.36,0.15,0.74,0.21,1.07,0.26  c0.21,0.03,0.56,0.08,0.64,0.14c0.07,0.08,0.12,0.44,0.15,0.65c0.05,0.33,0.11,0.7,0.26,1.07c0.15,0.35,0.37,0.65,0.56,0.91  c0.13,0.17,0.36,0.48,0.36,0.58S16.29,8.94,16.17,9.11z"/><path d="M2.76,17.97l3.51,0.88l1.04,2.53c0.13,0.31,0.41,0.54,0.74,0.6c0.33,0.06,0.68-0.05,0.91-0.3L12,18.46l3.04,3.23  c0.19,0.2,0.46,0.31,0.73,0.31c0.06,0,0.12-0.01,0.18-0.02c0.33-0.06,0.61-0.29,0.74-0.6l1.04-2.53l3.51-0.88  c0.37-0.09,0.65-0.38,0.73-0.75s-0.05-0.75-0.35-0.99l-2.95-2.38c-0.43-0.35-1.06-0.28-1.41,0.15c-0.35,0.43-0.28,1.06,0.15,1.41  l1.39,1.12l-2.05,0.51c-0.31,0.08-0.56,0.3-0.68,0.59l-0.65,1.57l-2.7-2.87c-0.38-0.4-1.08-0.4-1.46,0l-2.7,2.87l-0.65-1.57  c-0.12-0.29-0.37-0.51-0.68-0.59l-2.05-0.51l1.39-1.12c0.43-0.35,0.5-0.98,0.15-1.41c-0.35-0.43-0.97-0.5-1.41-0.15l-2.95,2.38  c-0.29,0.24-0.43,0.62-0.35,0.99S2.39,17.88,2.76,17.97z"/><polygon points="12,5.62 11.19,7.27 9,7.62 10.69,8.81 10,10.62 12,9.77 14,10.62 13.31,8.81 15,7.62 12.81,7.27 "/></svg>