<?xml version="1.0" ?><!-- Uploaded to: SVG Repo, www.svgrepo.com, Generator: SVG Repo Mixer Tools -->
<svg fill="#000000" width="800px" height="800px" viewBox="0 0 24 24" id="Layer_1" version="1.1" xml:space="preserve" xmlns="http://www.w3.org/2000/svg" xmlns:xlink="http://www.w3.org/1999/xlink"><path d="M2.76,17.97l3.51,0.88l1.04,2.53c0.13,0.31,0.41,0.54,0.74,0.6c0.33,0.06,0.68-0.05,0.91-0.3L12,18.46l3.04,3.23  c0.19,0.2,0.46,0.31,0.73,0.31c0.06,0,0.12-0.01,0.18-0.02c0.33-0.06,0.61-0.29,0.74-0.6l1.04-2.53l3.51-0.88  c0.37-0.09,0.65-0.38,0.73-0.75s-0.05-0.75-0.35-0.99l-2.95-2.38c-0.43-0.35-1.06-0.28-1.41,0.15c-0.35,0.43-0.28,1.06,0.15,1.41  l1.39,1.12l-2.05,0.51c-0.31,0.08-0.56,0.3-0.68,0.59l-0.65,1.57l-2.7-2.87c-0.38-0.4-1.08-0.4-1.46,0l-2.7,2.87l-0.65-1.57  c-0.12-0.29-0.37-0.51-0.68-0.59l-2.05-0.51l1.39-1.12c0.43-0.35,0.5-0.98,0.15-1.41c-0.35-0.43-0.97-0.5-1.41-0.15l-2.95,2.38  c-0.29,0.24-0.43,0.62-0.35,0.99S2.39,17.88,2.76,17.97z"/><path d="M6.55,10.76c0.06,0.14,0.09,0.37,0.13,0.6c0.08,0.55,0.19,1.23,0.71,1.76c0.53,0.52,1.21,0.63,1.76,0.71  c0.23,0.03,0.46,0.07,0.6,0.13c0.12,0.05,0.3,0.19,0.48,0.32c0.43,0.32,1.01,0.76,1.78,0.76s1.35-0.44,1.78-0.76  c0.18-0.13,0.36-0.27,0.48-0.32c0.14-0.06,0.37-0.09,0.6-0.13c0.55-0.08,1.23-0.19,1.76-0.71c0.53-0.52,0.63-1.21,0.71-1.76  c0.03-0.23,0.07-0.46,0.13-0.6c0.05-0.12,0.19-0.3,0.32-0.48c0.32-0.43,0.76-1.01,0.76-1.78s-0.44-1.35-0.76-1.78  c-0.13-0.18-0.27-0.36-0.32-0.48c-0.06-0.14-0.09-0.37-0.13-0.6c-0.08-0.55-0.19-1.23-0.71-1.76c-0.53-0.52-1.21-0.63-1.76-0.71  c-0.23-0.03-0.46-0.07-0.6-0.13c-0.12-0.05-0.3-0.19-0.48-0.32C13.35,2.41,12.77,1.97,12,1.97s-1.35,0.44-1.78,0.76  C10.04,2.86,9.86,3,9.74,3.05C9.6,3.1,9.37,3.14,9.14,3.17C8.59,3.26,7.91,3.36,7.39,3.88C6.86,4.41,6.76,5.09,6.67,5.64  C6.64,5.87,6.6,6.1,6.55,6.24C6.5,6.36,6.36,6.54,6.23,6.72C5.91,7.15,5.47,7.73,5.47,8.5s0.44,1.35,0.76,1.78  C6.36,10.46,6.5,10.64,6.55,10.76z M7.83,7.92c0.2-0.26,0.42-0.56,0.56-0.91C8.54,6.65,8.6,6.27,8.65,5.94  C8.68,5.73,8.74,5.38,8.8,5.3c0.08-0.07,0.43-0.12,0.64-0.15c0.33-0.05,0.7-0.11,1.06-0.26c0.35-0.15,0.65-0.37,0.91-0.56  C11.58,4.21,11.9,3.97,12,3.97s0.42,0.23,0.58,0.36c0.26,0.2,0.56,0.42,0.91,0.56c0.36,0.15,0.74,0.21,1.07,0.26  c0.21,0.03,0.56,0.08,0.64,0.14c0.07,0.08,0.12,0.44,0.15,0.65c0.05,0.33,0.11,0.7,0.26,1.07c0.15,0.35,0.37,0.65,0.56,0.91  c0.13,0.17,0.36,0.48,0.36,0.58s-0.23,0.42-0.36,0.58c-0.2,0.26-0.42,0.56-0.56,0.91c-0.15,0.36-0.21,0.74-0.26,1.07  c-0.03,0.21-0.08,0.56-0.15,0.64c-0.08,0.07-0.43,0.12-0.64,0.15c-0.33,0.05-0.7,0.11-1.06,0.26c-0.35,0.15-0.65,0.37-0.91,0.56  c-0.17,0.13-0.48,0.36-0.58,0.36s-0.42-0.23-0.58-0.36c-0.26-0.2-0.56-0.42-0.91-0.56c-0.36-0.15-0.74-0.21-1.07-0.26  c-0.21-0.03-0.56-0.08-0.64-0.14c-0.07-0.08-0.12-0.44-0.15-0.65c-0.05-0.33-0.11-0.7-0.26-1.07C8.25,9.64,8.03,9.35,7.83,9.08  C7.71,8.92,7.47,8.6,7.47,8.5S7.71,8.08,7.83,7.92z"/><path d="M9.25,10h1.5C10.89,10,11,9.89,11,9.75v-1.5C11,8.11,10.89,8,10.75,8h-1.5C9.11,8,9,8.11,9,8.25v1.5C9,9.89,9.11,10,9.25,10  z"/><path d="M12.25,10h2.5C14.89,10,15,9.89,15,9.75V9V8V7.25C15,7.11,14.89,7,14.75,7h-1c-0.14,0-0.25-0.11-0.25-0.25v-0.5  C13.5,6.11,13.39,6,13.25,6h-0.5c-0.14,0-0.25,0.11-0.25,0.25v0.5C12.5,6.89,12.39,7,12.25,7S12,7.11,12,7.25V8v1v0.75  C12,9.89,12.11,10,12.25,10z"/></svg>